<svg width="192" height="192" xmlns="http://www.w3.org/2000/svg">
  <defs>
    <linearGradient id="grad1" x1="0%" y1="0%" x2="100%" y2="100%">
      <stop offset="0%" style="stop-color:#007bff;stop-opacity:1" />
      <stop offset="100%" style="stop-color:#0056b3;stop-opacity:1" />
    </linearGradient>
  </defs>
  <rect width="192" height="192" fill="url(#grad1)" rx="24"/>
  <!-- Symbole € stylisé -->
  <path d="M60 70 Q60 50 80 50 L120 50 Q140 50 140 70 L140 85 Q140 95 130 95 L110 95 L110 105 L130 105 Q150 105 150 125 L150 140 Q150 160 130 160 L80 160 Q60 160 60 140 L60 125 Q60 115 70 115 L90 115 L90 105 L70 105 Q50 105 50 85 Z" fill="white"/>
  <!-- Texte AEES -->
  <text x="96" y="140" font-family="Arial, sans-serif" font-size="24" font-weight="bold" text-anchor="middle" fill="white">AEES</text>
</svg>